<svg width="512" height="512" viewBox="0 0 512 512" xmlns="http://www.w3.org/2000/svg" role="img" aria-labelledby="title">
  <title id="title">Stronger app icon</title>
  <rect width="512" height="512" fill="transparent"/>
  <rect x="56" y="0" width="264" height="512" rx="42" fill="#333a42"/>
  <rect x="64" y="8" width="248" height="496" rx="36" fill="#2ea6ba"/>
  <path d="M100 8h3c10 0 19 4 26 12l16 16h86l33-28h22c14 0 26 6 34 15v99H176c-31 0-56 25-56 56v164c0 31 25 56 56 56h144v70c0 20-16 36-36 36H100c-20 0-36-16-36-36V44c0-20 16-36 36-36Z" fill="#2ea6ba"/>
  <rect x="132" y="476" width="112" height="8" rx="4" fill="#333a42"/>
  <rect x="176" y="120" width="280" height="280" rx="58" fill="#24597a"/>
  <rect x="203" y="240" width="26" height="42" rx="12" fill="#5ec799"/>
  <rect x="221" y="215" width="28" height="90" rx="10" fill="#c9d900"/>
  <rect x="247" y="202" width="34" height="117" rx="12" fill="#5ec799"/>
  <rect x="281" y="245" width="70" height="31" fill="#d6d9da"/>
  <rect x="351" y="202" width="34" height="117" rx="12" fill="#5ec799"/>
  <rect x="383" y="215" width="28" height="90" rx="10" fill="#c9d900"/>
  <rect x="411" y="240" width="17" height="42" rx="8" fill="#5ec799"/>
</svg>
